<svg width="544" height="644" viewBox="0 0 544 644" fill="none" xmlns="http://www.w3.org/2000/svg">
<g clip-path="url(#clip0_171_3)">
<g clip-path="url(#clip1_171_3)">
<path d="M525.689 550.444C595.651 723.023 411.136 987 269.827 987C128.519 987 -57.9953 739.486 13.9659 530.007C85.9271 320.528 34.4549 107.076 269.827 93.4514C505.2 79.8267 455.727 377.866 525.689 550.444Z" fill="#353535"/>
<path d="M81.1541 32.8811C139.334 51.4513 168.886 71.1575 214.395 128.137L101.557 193.284C95.3583 129.621 58.7009 108.793 81.1541 32.8811Z" fill="#343434"/>
<path d="M104.469 71.6308C139.654 87.6606 158.195 102.575 188.482 143.098C157.886 147.8 144.503 155.757 126.829 178.693C119.064 136.325 96.3 120.208 104.469 71.6308Z" fill="#935B66"/>
<path d="M128.057 63.4338C144.277 94.3311 151.11 117.363 158.919 169.387C148.994 118.73 142.318 95.6301 128.057 63.4338Z" fill="white" stroke="white"/>
<path d="M118.87 109.746C136.131 124.243 144.372 137.152 156.275 169.361C142.642 138.927 134.533 125.908 118.87 109.746Z" fill="white" stroke="white"/>
<path d="M117.421 140.398C132.871 144.779 140.969 151.719 154.304 172.726C139.81 153.894 131.803 146.809 117.421 140.398Z" fill="white" stroke="white"/>
<ellipse cx="270" cy="270.5" rx="159" ry="137.5" fill="#343434"/>
<path d="M238 231.5C238 253.315 207.248 276 183.5 276C159.752 276 143.5 266.315 143.5 244.5C143.5 222.685 171.252 192 195 192C218.748 192 238 209.685 238 231.5Z" fill="#F8BA2D"/>
<path d="M307 231.454C307 253.269 337.752 275.954 361.5 275.954C385.248 275.954 401.5 266.269 401.5 244.454C401.5 222.638 373.748 191.954 350 191.954C326.252 191.954 307 209.638 307 231.454Z" fill="#F8BA2D"/>
<path d="M176.61 192.35C161.43 197.59 153.734 204.973 141.597 226.694C155.013 207.079 162.61 199.557 176.61 192.35Z" fill="#B0B0B0" stroke="#B0B0B0"/>
<path d="M351.761 187.492C367.7 189.45 376.767 195.064 393.169 213.774C375.956 197.391 366.957 191.619 351.761 187.492Z" fill="#B0B0B0" stroke="#B0B0B0"/>
<path d="M304.999 287C307.499 273.5 239.999 275 241.499 287C242.999 299 267 318 272.499 318.5C277.998 319 302.499 300.5 304.999 287Z" fill="#FFC0C0"/>
<path d="M219 330C238.971 351.505 250.563 352.169 272 330C295.107 349.55 307.306 349.718 327.5 330" stroke="#DCDCDC" stroke-width="4" stroke-linecap="round"/>
<path d="M1.66164 281.92C72.7646 277.884 121.326 284.644 224.574 314.08C122.078 289.73 73.5232 282.621 1.66164 281.92Z" fill="white" stroke="white"/>
<path d="M79.9419 338.108C121.454 318.284 152.398 313.879 222.293 318.97C154.234 318.592 123.199 322.661 79.9419 338.108Z" fill="white" stroke="white"/>
<path d="M135.665 366.69C156.854 341.688 176.588 332.504 226.878 325.474C179.649 336.494 159.724 345.385 135.665 366.69Z" fill="white" stroke="white"/>
<path d="M541.286 278.92C470.183 274.884 421.622 281.644 318.373 311.08C420.869 286.73 469.424 279.621 541.286 278.92Z" fill="white" stroke="white"/>
<path d="M463.005 335.108C421.493 315.284 390.549 310.879 320.654 315.97C388.713 315.592 419.748 319.661 463.005 335.108Z" fill="white" stroke="white"/>
<path d="M407.282 363.69C386.093 338.688 366.359 329.504 316.069 322.474C363.298 333.494 383.224 342.385 407.282 363.69Z" fill="white" stroke="white"/>
</g>
</g>
<defs>
<clipPath id="clip0_171_3">
<rect width="544" height="644" fill="white"/>
</clipPath>
<clipPath id="clip1_171_3">
<rect x="-219" y="-357" width="1000" height="1000" rx="500" fill="white"/>
</clipPath>
</defs>
</svg>
