<svg width="177" height="188" viewBox="0 0 177 188" fill="none" xmlns="http://www.w3.org/2000/svg">
<path d="M113.954 23.4837C135.081 80.7844 137.711 116.207 120.757 187.131L-0.000215971 138.2C46.3948 94.1674 40.2818 52.4515 113.954 23.4837Z" fill="#343434"/>
<path d="M101.73 66.6958C110.722 104.3 110.361 128.093 97.025 176.894C72.7218 158.31 58.1635 152.499 31.0458 150.159C59.6841 117.984 58.3981 90.1218 101.73 66.6958Z" fill="#935B66"/>
<path d="M96.3508 60.9624C80.1306 91.8597 73.2975 114.891 65.4884 166.916C75.4137 116.258 82.0897 93.1587 96.3508 60.9624Z" fill="white" stroke="white"/>
<path d="M105.538 107.275C88.2768 121.771 80.0362 134.68 68.1324 166.89C81.7661 136.455 89.875 123.437 105.538 107.275Z" fill="white" stroke="white"/>
<path d="M106.987 137.927C91.537 142.308 83.4386 149.248 70.1035 170.254C84.5973 151.422 92.6043 144.338 106.987 137.927Z" fill="white" stroke="white"/>
</svg>
